<svg width="25" height="20" viewBox="0 0 25 20" fill="none" xmlns="http://www.w3.org/2000/svg">
<path d="M24.0039 2.5585C23.1114 2.95 22.1604 3.2095 21.1689 3.3355C22.1889 2.7265 22.9674 1.7695 23.3334 0.616C22.3824 1.183 21.3324 1.5835 20.2134 1.807C19.3104 0.8455 18.0234 0.25 16.6194 0.25C13.8954 0.25 11.7024 2.461 11.7024 5.1715C11.7024 5.5615 11.7354 5.9365 11.8164 6.2935C7.72591 6.094 4.10641 4.1335 1.67491 1.147C1.25041 1.8835 1.00141 2.7265 1.00141 3.634C1.00141 5.338 1.87891 6.8485 3.18691 7.723C2.39641 7.708 1.62091 7.4785 0.963906 7.117C0.963906 7.132 0.963906 7.1515 0.963906 7.171C0.963906 9.562 2.66941 11.548 4.90591 12.0055C4.50541 12.115 4.06891 12.1675 3.61591 12.1675C3.30091 12.1675 2.98291 12.1495 2.68441 12.0835C3.32191 14.032 5.13091 15.4645 7.28191 15.511C5.60791 16.8205 3.48241 17.6095 1.18141 17.6095C0.777906 17.6095 0.390906 17.5915 0.00390625 17.542C2.18341 18.9475 4.76641 19.75 7.55191 19.75C16.6059 19.75 21.5559 12.25 21.5559 5.749C21.5559 5.5315 21.5484 5.3215 21.5379 5.113C22.5144 4.42 23.3349 3.5545 24.0039 2.5585Z" fill="#808080"/>
</svg>
