<svg width="25" height="18" viewBox="0 0 25 18" fill="none" xmlns="http://www.w3.org/2000/svg">
<path d="M22.9839 2.34C22.3329 1.182 21.6264 0.969 20.1879 0.888C18.7509 0.7905 15.1374 0.75 12.0069 0.75C8.87041 0.75 5.25541 0.7905 3.81991 0.8865C2.38441 0.969 1.67641 1.1805 1.01941 2.34C0.348906 3.4965 0.00390625 5.4885 0.00390625 8.9955C0.00390625 8.9985 0.00390625 9 0.00390625 9C0.00390625 9.003 0.00390625 9.0045 0.00390625 9.0045V9.0075C0.00390625 12.4995 0.348906 14.5065 1.01941 15.651C1.67641 16.809 2.38291 17.019 3.81841 17.1165C5.25541 17.2005 8.87041 17.25 12.0069 17.25C15.1374 17.25 18.7509 17.2005 20.1894 17.118C21.6279 17.0205 22.3344 16.8105 22.9854 15.6525C23.6619 14.508 24.0039 12.501 24.0039 9.009C24.0039 9.009 24.0039 9.0045 24.0039 9.0015C24.0039 9.0015 24.0039 8.9985 24.0039 8.997C24.0039 5.4885 23.6619 3.4965 22.9839 2.34ZM9.00391 13.5V4.5L16.5039 9L9.00391 13.5Z" fill="#808080"/>
</svg>
